<svg height="512pt" viewBox="0 0 512 512" width="512pt" xmlns="http://www.w3.org/2000/svg" xmlns:xlink="http://www.w3.org/1999/xlink"><linearGradient id="a" gradientTransform="matrix(1 0 0 -1 0 -20854)" gradientUnits="userSpaceOnUse" x1="0" x2="512" y1="-21110" y2="-21110"><stop offset="0" stop-color="#00f38d"/><stop offset="1" stop-color="#009eff"/></linearGradient><path d="m512 256c0 141.386719-114.613281 256-256 256s-256-114.613281-256-256 114.613281-256 256-256 256 114.613281 256 256zm0 0" fill="url(#a)"/><g fill="#fff"><path d="m329.636719 433h-147.273438c-56.996093 0-103.363281-46.367188-103.363281-103.363281v-147.273438c0-56.996093 46.367188-103.363281 103.363281-103.363281h147.273438c56.996093 0 103.363281 46.367188 103.363281 103.363281v147.273438c0 56.996093-46.367188 103.363281-103.363281 103.363281zm-147.273438-324c-40.453125 0-73.363281 32.910156-73.363281 73.363281v147.273438c0 40.453125 32.910156 73.363281 73.363281 73.363281h147.273438c40.453125 0 73.363281-32.910156 73.363281-73.363281v-147.273438c0-40.453125-32.910156-73.363281-73.363281-73.363281zm0 0"/><path d="m256 352c-52.933594 0-96-43.066406-96-96s43.066406-96 96-96 96 43.066406 96 96-43.066406 96-96 96zm0-162c-36.394531 0-66 29.605469-66 66s29.605469 66 66 66 66-29.605469 66-66-29.605469-66-66-66zm0 0"/><path d="m365.832031 159.898438c0 7.582031-6.148437 13.730468-13.730469 13.730468-7.582031 0-13.730468-6.148437-13.730468-13.730468 0-7.582032 6.148437-13.730469 13.730468-13.730469 7.582032 0 13.730469 6.148437 13.730469 13.730469zm0 0"/></g></svg>